<svg version="1.1" id="Layer_1" xmlns="http://www.w3.org/2000/svg" xmlns:xlink="http://www.w3.org/1999/xlink" x="0px" y="0px" width="24px" height="24px" viewBox="0 0 24 24" fill="white" enable-background="new 0 0 24 24" xml:space="preserve" class="eapps-social-share-buttons-item-icon"> <path d="M21.535,7.063c0.311,6.923-4.852,14.642-13.99,14.642 c-2.78,0-5.368-0.815-7.545-2.213c2.611,0.308,5.217-0.415,7.287-2.038c-2.154-0.039-3.972-1.462-4.599-3.418 c0.771,0.148,1.53,0.105,2.223-0.084c-2.367-0.475-4.002-2.608-3.948-4.888c0.664,0.369,1.423,0.59,2.229,0.615 C1.001,8.215,0.38,5.32,1.67,3.108c2.428,2.978,6.055,4.938,10.145,5.143c-0.717-3.079,1.618-6.044,4.796-6.044 c1.415,0,2.694,0.598,3.592,1.554c1.121-0.221,2.174-0.631,3.126-1.195c-0.368,1.149-1.149,2.114-2.164,2.724 c0.995-0.119,1.944-0.384,2.826-0.776C23.331,5.503,22.497,6.37,21.535,7.063z"></path> </svg>