<svg width="96" height="96" xmlns="http://www.w3.org/2000/svg" xmlns:xlink="http://www.w3.org/1999/xlink" fill="whitesmoke" overflow="hidden"><defs><clipPath id="clip0"><rect x="0" y="0" width="96" height="96"/></clipPath></defs><g clip-path="url(#clip0)"><path d="M10 34 17 34 17 38 10 38Z"/><path d="M10 26 17 26 17 30 10 30Z"/><path d="M10 42 17 42 17 46 10 46Z"/><path d="M10 66 17 66 17 70 10 70Z"/><path d="M10 58 17 58 17 62 10 62Z"/><path d="M10 50 17 50 17 54 10 54Z"/><path d="M79 58 86 58 86 62 79 62Z"/><path d="M79 66 86 66 86 70 79 70Z"/><path d="M79 50 86 50 86 54 79 54Z"/><path d="M79 26 86 26 86 30 79 30Z"/><path d="M79 42 86 42 86 46 79 46Z"/><path d="M79 34 86 34 86 38 79 38Z"/><path d="M50 10 54 10 54 17 50 17Z"/><path d="M66 10 70 10 70 17 66 17Z"/><path d="M58 10 62 10 62 17 58 17Z"/><path d="M42 10 46 10 46 17 42 17Z"/><path d="M26 10 30 10 30 17 26 17Z"/><path d="M34 10 38 10 38 17 34 17Z"/><path d="M34 79 38 79 38 86 34 86Z"/><path d="M26 79 30 79 30 86 26 86Z"/><path d="M42 79 46 79 46 86 42 86Z"/><path d="M50 79 54 79 54 86 50 86Z"/><path d="M58 79 62 79 62 86 58 86Z"/><path d="M66 79 70 79 70 86 66 86Z"/><path d="M35 35 61 35 61 61 35 61Z"/><path d="M71 21 25 21C22.7909 21 21 22.7909 21 25L21 71C21 73.2091 22.7909 75 25 75L71 75C73.2091 75 75 73.2091 75 71L75 25C75 22.7909 73.2091 21 71 21ZM65 65 31 65 31 31 65 31Z"/></g></svg>